<?xml version="1.0" standalone="no"?>
<!DOCTYPE svg PUBLIC "-//W3C//DTD SVG 20010904//EN"
 "http://www.w3.org/TR/2001/REC-SVG-20010904/DTD/svg10.dtd">
<svg version="1.0" xmlns="http://www.w3.org/2000/svg"
 width="658.000000pt" height="658.000000pt" viewBox="0 0 658.000000 658.000000"
 preserveAspectRatio="xMidYMid meet">
<metadata>
Created by potrace 1.11, written by Peter Selinger 2001-2013
</metadata>
<g transform="translate(0.000000,658.000000) scale(0.100000,-0.100000)"
fill="#000000" stroke="none">
<path d="M2868 6560 c-2 -6 -20 -11 -41 -12 -20 -1 -37 -5 -37 -10 0 -4 -11
-8 -24 -8 -14 0 -28 -4 -31 -10 -3 -5 -12 -10 -18 -10 -7 0 -6 4 3 10 9 6 10
10 3 10 -6 0 -15 -4 -18 -10 -9 -14 -52 -12 -58 3 -4 10 -6 10 -6 0 -1 -7 -8
-13 -16 -13 -8 0 -15 6 -15 13 0 9 -2 9 -9 -1 -4 -7 -28 -14 -53 -15 -30 -1
-44 -6 -41 -13 2 -7 -1 -15 -8 -20 -8 -5 -10 -3 -4 7 8 12 6 12 -8 0 -9 -7
-26 -11 -37 -8 -11 3 -22 1 -25 -4 -9 -14 -44 13 -38 29 3 8 0 13 -8 12 -23
-4 -39 0 -38 8 4 26 -2 32 -22 21 -12 -6 -19 -7 -16 -2 4 5 0 10 -8 10 -8 0
-12 -4 -9 -9 3 -4 -2 -8 -12 -8 -14 0 -15 -2 -3 -17 10 -11 10 -14 2 -9 -18
10 -16 -4 4 -26 15 -16 15 -18 1 -13 -9 4 -19 1 -24 -6 -5 -8 -3 -10 7 -5 8 4
6 1 -3 -7 -10 -8 -14 -18 -10 -22 4 -5 1 -5 -6 -1 -7 4 -9 13 -6 19 5 8 3 8
-7 0 -8 -9 -46 -13 -111 -13 -80 0 -98 -3 -98 -15 0 -8 -8 -15 -17 -16 -10 0
-13 -3 -7 -5 7 -3 9 -15 6 -26 -4 -17 -2 -20 11 -15 9 3 19 1 23 -5 4 -7 9 -6
15 3 7 11 11 10 24 -6 9 -11 13 -14 9 -6 -5 9 -3 12 4 7 31 -19 3 -44 -40 -37
-5 0 -7 -5 -5 -12 1 -6 -4 -11 -12 -9 -12 3 -12 1 -1 -13 7 -9 9 -15 4 -14 -5
1 -16 1 -24 -1 -11 -1 -9 -4 5 -10 15 -6 16 -9 4 -9 -18 -1 -71 -56 -62 -65 4
-3 1 -6 -5 -6 -6 0 -9 -6 -6 -14 3 -9 -3 -17 -17 -21 -12 -4 -17 -10 -12 -14
15 -10 12 -43 -4 -37 -11 5 -11 1 -2 -17 11 -20 11 -21 -4 -8 -14 11 -18 11
-23 -3 -3 -9 -21 -23 -40 -32 -20 -10 -31 -21 -27 -28 5 -7 2 -7 -8 1 -15 12
-41 4 -40 -13 0 -5 -7 -8 -15 -8 -8 1 -14 -2 -14 -8 0 -5 -5 -6 -12 -2 -7 4
-8 3 -4 -5 4 -6 13 -8 19 -4 7 4 6 0 -2 -10 -7 -9 -18 -14 -23 -11 -7 4 -7 0
0 -12 11 -23 5 -47 -11 -37 -7 4 -6 -1 2 -10 12 -15 12 -17 -1 -12 -9 4 -18 0
-21 -9 -4 -11 -1 -13 11 -10 9 3 7 -1 -6 -8 -12 -8 -19 -17 -15 -22 4 -4 -1
-4 -10 0 -12 4 -17 2 -15 -7 2 -9 -4 -13 -14 -11 -10 2 -18 -2 -18 -9 0 -6 -7
-9 -15 -5 -8 3 -15 2 -15 -2 0 -4 -11 -12 -25 -19 -14 -6 -23 -7 -20 -3 3 5
-3 7 -12 6 -10 -2 -19 -8 -19 -14 -3 -23 -4 -24 -19 -12 -12 10 -16 9 -21 -4
-3 -9 -10 -13 -15 -10 -5 3 -9 1 -9 -5 0 -6 -7 -8 -15 -4 -10 3 -15 1 -13 -7
2 -7 -3 -15 -11 -18 -9 -3 -11 0 -6 9 5 8 4 11 -1 6 -5 -5 -10 -13 -10 -18 -1
-5 -2 -12 -3 -15 0 -4 -8 0 -18 7 -15 13 -15 12 -5 -7 9 -16 8 -21 -4 -22 -7
-1 -20 -3 -28 -4 -7 -1 -11 -9 -9 -19 3 -9 -1 -20 -8 -24 -8 -5 -10 -4 -5 3 4
7 3 12 -3 12 -6 0 -14 -12 -17 -27 -4 -16 -11 -30 -15 -33 -6 -5 -14 -37 -18
-73 -1 -5 -7 -5 -13 -1 -8 5 -7 0 2 -11 9 -11 10 -16 3 -11 -17 10 -17 -16 0
-33 10 -11 9 -13 -3 -7 -8 4 -2 -4 14 -19 21 -20 29 -37 31 -70 2 -24 6 -48 9
-53 4 -6 1 -14 -5 -18 -8 -4 -7 -9 2 -15 11 -7 10 -9 -3 -9 -12 0 -15 -5 -11
-17 4 -10 2 -14 -4 -10 -11 7 -11 -22 1 -42 7 -11 4 -11 -15 0 -23 12 -23 11
-9 -6 9 -11 10 -16 3 -11 -8 4 -13 2 -13 -4 0 -6 -4 -8 -10 -5 -5 3 -10 1 -10
-5 0 -6 -5 -8 -12 -4 -6 4 -9 3 -6 -2 4 -5 0 -22 -8 -39 -12 -26 -13 -27 -9
-5 3 14 2 19 -1 12 -3 -6 -10 -10 -15 -7 -5 4 -6 0 -3 -8 3 -8 -2 -22 -11 -31
-9 -9 -14 -24 -11 -32 4 -10 -1 -18 -13 -21 -13 -3 -18 -10 -14 -21 4 -9 2
-13 -4 -9 -11 7 -11 -22 0 -41 5 -8 3 -10 -6 -6 -8 3 -18 0 -23 -7 -5 -8 -3
-10 7 -5 8 4 6 1 -4 -7 -18 -15 -18 -15 0 -20 16 -4 16 -5 1 -6 -10 0 -18 -8
-18 -16 0 -8 -5 -15 -11 -15 -8 0 -8 -4 0 -14 9 -11 9 -17 -1 -28 -15 -16 -22
-42 -9 -34 5 3 11 -3 14 -14 3 -13 1 -18 -6 -13 -8 4 -8 2 0 -9 7 -8 10 -18 6
-21 -3 -4 -1 -7 6 -7 9 0 9 -5 1 -20 -6 -12 -7 -20 -1 -20 10 0 9 -19 -2 -37
-4 -6 -2 -15 4 -19 8 -5 9 -3 4 6 -5 8 -4 11 3 7 5 -4 8 -16 5 -27 -3 -13 1
-22 11 -26 15 -6 15 -8 -1 -20 -17 -13 -17 -14 0 -8 13 5 16 2 11 -10 -4 -10
-1 -16 7 -16 11 0 11 -3 -1 -10 -12 -7 -12 -10 -1 -10 7 0 11 -6 7 -15 -3 -8
-1 -15 4 -15 5 0 7 -7 4 -15 -4 -8 -1 -15 6 -15 10 0 10 -3 1 -14 -9 -11 -9
-15 1 -19 8 -4 7 -6 -4 -6 -11 -1 -15 -6 -12 -16 4 -9 1 -15 -7 -15 -10 0 -10
-3 -1 -12 7 -7 8 -17 1 -30 -7 -12 -6 -18 1 -18 8 0 8 -6 0 -20 -8 -15 -8 -20
1 -20 7 0 4 -9 -7 -22 -10 -12 -13 -18 -6 -14 17 10 15 0 -5 -19 -13 -13 -13
-19 -4 -25 9 -5 10 -13 3 -26 -5 -11 -7 -25 -5 -31 3 -7 0 -13 -6 -13 -6 0
-11 -8 -11 -17 0 -15 2 -16 10 -3 5 8 10 10 10 4 0 -6 -6 -17 -14 -23 -11 -9
-15 -46 -6 -46 1 0 3 -17 6 -38 2 -20 8 -46 14 -57 8 -15 8 -20 -1 -20 -9 0
-9 -3 0 -14 7 -8 8 -17 3 -20 -4 -2 -5 -35 -1 -73 4 -37 5 -72 1 -77 -3 -5 0
-6 6 -2 6 3 13 2 17 -4 3 -5 1 -10 -6 -10 -7 0 -2 -8 9 -19 12 -10 22 -23 22
-30 0 -6 4 -11 10 -11 6 0 6 -9 0 -25 -6 -15 -6 -26 0 -30 6 -4 6 -14 -1 -27
-6 -12 -7 -18 -1 -14 5 3 13 -1 16 -10 4 -10 2 -13 -7 -8 -6 4 -4 -1 5 -12 11
-13 14 -24 8 -34 -5 -9 -5 -19 2 -27 7 -9 7 -13 -2 -13 -9 0 -10 -3 -1 -13 6
-8 8 -17 4 -20 -3 -4 0 -14 8 -24 8 -9 9 -14 3 -10 -6 3 -11 0 -11 -8 0 -8 5
-11 10 -8 6 4 8 -3 5 -15 -4 -12 -2 -22 3 -22 6 0 5 -9 -2 -21 -8 -15 -8 -19
0 -15 12 8 12 7 16 -39 2 -16 4 -32 5 -35 1 -3 1 -9 0 -15 -1 -5 -4 -23 -7
-40 -3 -16 -9 -38 -14 -47 -6 -11 -5 -19 1 -23 7 -5 8 -11 1 -19 -6 -7 -6 -17
-1 -26 5 -9 5 -19 -1 -26 -7 -8 -7 -14 0 -18 7 -4 7 -15 1 -30 -5 -13 -6 -27
-2 -30 3 -4 7 -12 8 -19 1 -7 5 -25 8 -42 3 -16 8 -43 11 -59 4 -16 9 -34 13
-40 10 -16 11 -36 3 -36 -8 0 -8 -37 1 -45 2 -3 2 -25 -2 -50 -4 -25 -3 -45 1
-45 4 0 6 -9 4 -20 -5 -24 4 -52 14 -46 3 2 7 -10 8 -27 1 -17 8 -34 15 -39
10 -6 10 -8 0 -8 -7 0 -10 -5 -7 -10 4 -6 11 -8 16 -5 5 3 6 0 3 -8 -2 -7 0
-25 5 -39 6 -17 6 -29 -1 -36 -6 -6 -6 -12 3 -17 8 -6 10 -4 4 5 -5 9 -4 11 3
6 7 -4 12 -15 12 -25 0 -9 6 -23 13 -30 10 -11 9 -12 -3 -6 -13 8 -13 6 -2 -8
8 -9 11 -21 7 -27 -3 -5 -1 -10 4 -10 6 0 11 -7 11 -15 0 -9 8 -28 18 -42 12
-19 13 -25 3 -19 -16 10 -8 -7 18 -38 9 -11 10 -16 4 -12 -7 4 -13 2 -13 -3 0
-6 5 -11 10 -11 6 0 10 -5 10 -11 0 -5 -6 -7 -12 -4 -7 4 -5 0 5 -8 13 -11 15
-17 6 -22 -8 -6 -4 -12 12 -22 16 -9 17 -12 5 -8 -15 4 -17 3 -8 -8 7 -8 9
-17 5 -20 -3 -4 -1 -7 6 -7 8 0 11 -6 7 -16 -3 -8 -2 -13 3 -10 5 3 11 -1 15
-9 3 -8 0 -15 -6 -15 -6 0 -1 -11 12 -24 14 -16 20 -31 16 -42 -4 -11 -2 -15
7 -11 11 4 12 -3 7 -34 -4 -21 -4 -39 1 -39 5 0 4 -11 -1 -25 -6 -16 -6 -27 2
-31 7 -4 5 -10 -6 -16 -13 -7 -14 -13 -6 -23 7 -8 9 -18 6 -24 -4 -5 1 -16 9
-24 18 -19 20 -31 3 -21 -7 4 -6 -1 3 -12 24 -29 34 -48 21 -40 -8 5 -10 2 -6
-8 3 -9 11 -16 16 -16 6 0 4 -8 -3 -17 -8 -9 -9 -14 -3 -10 7 4 14 -14 21 -49
5 -30 6 -57 1 -60 -4 -3 -1 -12 8 -21 12 -13 13 -17 2 -24 -9 -6 -7 -9 10 -9
27 0 28 -8 5 -26 -17 -13 -17 -14 1 -7 16 5 18 3 14 -15 -4 -12 -2 -20 3 -16
5 3 9 -4 9 -15 0 -12 4 -21 8 -21 12 0 11 -34 -1 -41 -5 -4 0 -10 12 -14 11
-3 21 -11 21 -16 0 -5 6 -9 13 -9 6 1 1 10 -12 20 -13 11 -19 20 -13 20 5 0
15 -7 22 -15 7 -8 17 -12 23 -8 6 4 7 1 1 -8 -13 -20 -11 -32 6 -47 9 -8 10
-11 1 -7 -9 5 -8 -1 4 -19 10 -14 14 -26 10 -26 -5 0 5 -12 21 -26 16 -15 22
-23 14 -19 -8 3 2 -8 22 -25 22 -19 35 -37 31 -46 -3 -7 0 -14 7 -14 6 0 9 -4
5 -9 -3 -5 -1 -12 5 -16 6 -4 8 -11 5 -16 -3 -5 1 -6 9 -3 9 3 16 1 16 -4 0
-6 -8 -13 -18 -15 -16 -4 -16 -5 1 -6 9 -1 18 -10 18 -21 1 -11 3 -24 4 -30 1
-5 3 -17 4 -25 0 -8 7 -15 14 -15 8 0 19 -10 26 -23 6 -12 9 -14 7 -5 -3 10 0
20 7 24 7 4 9 4 5 -1 -4 -4 -1 -22 7 -40 7 -19 11 -36 8 -39 -3 -3 6 -10 21
-15 14 -6 26 -17 26 -24 0 -17 45 -57 65 -57 8 0 15 -6 15 -14 0 -10 7 -13 21
-11 15 3 19 0 15 -10 -3 -9 0 -15 8 -15 8 0 30 -16 50 -36 20 -20 39 -34 42
-31 3 3 -6 13 -20 22 -14 10 -26 22 -26 28 0 16 72 -64 93 -102 14 -27 20 -31
31 -22 12 10 14 8 9 -11 -4 -18 -3 -20 6 -8 9 12 11 11 11 -7 0 -21 10 -28 34
-24 5 1 6 -5 3 -13 -8 -20 3 -28 20 -15 12 11 17 3 15 -22 0 -3 9 -11 21 -19
20 -12 21 -12 9 3 -11 12 -11 17 0 23 7 4 10 4 7 0 -4 -4 10 -25 29 -46 24
-25 39 -35 44 -27 5 8 9 6 13 -5 4 -9 14 -19 22 -22 13 -6 14 -4 3 11 -7 10 1
3 19 -16 17 -19 31 -28 31 -20 1 8 7 3 14 -10 10 -18 15 -20 19 -10 3 9 6 10
6 2 1 -7 7 -10 15 -7 7 3 16 -1 19 -9 3 -9 16 -13 32 -12 21 3 24 1 15 -10 -8
-10 -8 -15 1 -21 8 -5 10 -3 5 7 -4 8 0 5 9 -6 9 -11 19 -20 23 -20 4 0 6 -3
5 -6 -1 -3 4 -6 12 -6 8 0 11 5 8 11 -4 6 2 4 13 -5 10 -9 29 -15 41 -14 17 1
20 -1 12 -11 -7 -8 -6 -14 2 -20 8 -4 9 -3 5 4 -4 7 -2 12 3 12 6 0 11 -5 11
-11 0 -6 7 -9 15 -6 8 4 17 2 20 -2 3 -5 14 -7 25 -4 13 3 20 0 20 -8 0 -11 2
-11 10 1 6 10 10 11 10 3 0 -9 18 -13 54 -13 30 0 58 -4 61 -10 3 -5 12 -10
18 -10 7 0 6 4 -3 11 -13 9 -13 10 0 5 8 -3 23 -9 33 -12 9 -4 17 -11 17 -18
0 -6 5 -4 10 4 6 10 10 11 10 3 0 -9 21 -13 71 -13 38 0 68 -4 65 -8 -3 -5 1
-9 9 -9 8 0 15 5 15 11 0 6 5 4 10 -4 9 -13 10 -13 10 0 0 13 1 13 10 0 6 -10
10 -11 10 -2 0 15 66 17 75 2 3 -5 12 -10 18 -10 7 0 6 4 -3 10 -9 6 -10 10
-3 10 6 0 15 -4 18 -10 9 -15 185 -13 185 2 0 6 7 3 16 -8 8 -10 13 -14 10 -7
-9 17 3 22 62 24 31 2 49 6 45 12 -4 6 1 8 11 4 13 -5 17 -3 13 7 -4 10 -1 13
9 9 10 -4 12 0 7 13 -5 13 -3 15 7 9 9 -6 12 -4 8 7 -5 11 1 14 23 13 16 -1
37 4 47 11 9 7 22 13 27 14 6 0 3 -5 -5 -10 -9 -6 -10 -10 -3 -10 6 0 15 5 18
10 3 6 22 10 42 10 27 0 34 4 30 14 -4 11 -1 13 10 9 11 -4 14 -3 9 6 -4 6 -4
11 1 10 24 -4 53 2 48 11 -3 6 1 10 9 10 9 0 16 6 16 13 0 8 4 7 10 -3 6 -10
10 -11 10 -2 0 6 7 12 16 12 9 0 12 5 8 12 -5 9 -2 9 9 -1 16 -12 22 -8 18 12
-1 5 3 6 9 2 6 -4 18 -1 27 7 14 11 16 11 8 -1 -6 -10 -4 -12 4 -7 7 5 10 15
6 23 -4 12 -3 13 8 5 14 -12 27 -7 27 10 0 5 -5 6 -12 2 -7 -4 -8 -3 -4 5 4 6
12 9 17 6 5 -4 9 2 9 12 0 15 2 16 10 3 9 -13 14 -8 12 12 -1 3 5 9 14 12 10
4 13 2 8 -7 -4 -6 3 -2 15 11 26 26 39 29 21 5 -7 -10 -1 -6 13 9 14 15 27 22
29 16 3 -7 10 -4 21 6 9 10 15 22 12 27 -3 4 6 11 20 15 14 3 25 10 25 16 0 5
-6 6 -12 2 -7 -3 1 6 17 21 17 15 29 31 27 36 -1 6 6 5 17 0 17 -9 19 -8 16
14 -2 22 0 23 13 13 13 -11 14 -11 7 1 -6 11 -4 13 10 7 16 -6 16 -4 4 11 -9
11 -10 14 -1 9 7 -4 12 -1 12 8 0 8 6 13 13 11 6 -3 23 13 36 35 14 22 27 37
29 35 3 -3 11 3 19 13 8 9 12 12 9 6 -3 -6 1 -11 8 -11 8 0 12 6 9 13 -2 6 2
11 9 11 7 -1 14 3 16 8 2 6 13 21 25 35 l22 25 -24 -20 -25 -20 20 26 c10 15
25 24 31 22 7 -3 13 2 13 10 0 9 5 19 12 23 7 4 8 3 4 -4 -5 -8 -2 -10 9 -6 9
4 14 9 11 12 -3 2 6 18 19 34 14 16 25 36 25 44 0 9 5 12 10 9 6 -3 10 1 10
10 0 9 4 14 9 11 5 -3 11 1 14 9 4 10 1 12 -11 8 -9 -4 -3 6 13 21 17 15 25
25 18 22 -7 -4 -9 1 -6 15 4 16 8 17 14 7 6 -9 9 -6 9 12 0 17 3 21 9 12 6
-10 13 -2 25 28 9 22 23 43 31 46 8 4 15 12 15 20 0 8 5 14 10 14 6 0 10 9 10
21 0 15 5 19 15 15 13 -4 13 -2 5 14 -7 13 -7 21 0 25 6 4 8 11 5 16 -4 5 -1
9 5 9 6 0 8 5 4 12 -5 7 -2 9 9 5 12 -4 14 -2 10 10 -5 12 -3 14 8 8 12 -8 12
-6 0 8 -11 15 -11 17 2 17 8 0 18 7 21 16 4 10 2 13 -7 9 -6 -4 -4 0 5 8 10 8
15 17 11 20 -3 4 0 7 7 7 7 0 10 3 7 7 -4 3 1 12 11 20 9 8 11 12 5 8 -17 -8
-16 3 1 20 7 8 17 11 22 7 5 -4 2 2 -6 12 -10 13 -10 17 -2 12 7 -4 15 -1 18
8 3 9 11 13 18 9 6 -4 4 2 -4 12 -8 10 -10 16 -4 12 7 -4 15 0 18 9 4 10 2 13
-7 9 -6 -4 -4 0 6 8 12 10 15 17 7 22 -8 5 -8 11 1 21 9 11 9 14 0 14 -8 0 -9
5 -1 19 7 14 7 20 -1 23 -8 3 -6 10 5 20 10 10 12 19 6 23 -5 3 -10 11 -10 16
0 6 4 8 9 5 14 -9 21 20 8 34 -9 9 -9 11 -1 7 7 -4 15 0 18 9 3 9 11 12 18 8
10 -6 10 -4 0 8 -10 13 -10 17 1 21 10 4 11 20 7 66 -3 34 -2 61 3 61 5 0 4 6
-2 14 -7 8 -8 17 -4 19 5 3 6 33 3 66 -3 34 -3 61 1 61 4 0 5 9 2 20 -3 12 0
20 7 20 9 0 10 3 1 13 -8 10 -7 14 4 15 8 1 22 3 30 4 8 1 12 5 9 10 -3 5 5
17 18 28 13 11 20 19 16 20 -4 0 -2 15 3 33 6 17 12 40 14 51 2 10 9 24 14 30
7 9 7 16 -1 24 -7 7 -8 12 -2 12 5 0 8 34 6 81 -3 65 -1 80 10 73 10 -6 10 -4
-1 9 -11 14 -11 18 3 23 11 4 15 13 11 25 -4 11 -3 19 2 18 19 -3 22 2 13 25
-7 19 -5 26 7 30 12 5 13 9 4 20 -8 10 -9 16 -1 21 6 3 8 11 5 16 -4 5 -1 9 5
9 7 0 8 6 1 18 -6 11 -6 24 0 35 7 11 7 17 0 17 -7 0 -7 8 -1 24 5 15 5 27 -2
34 -6 6 -6 12 1 16 8 5 8 13 1 27 -8 15 -7 21 4 25 9 4 14 19 12 50 0 24 3 44
8 44 6 0 5 5 -2 12 -6 6 -8 18 -4 27 10 21 9 42 -2 60 -6 9 -5 12 1 8 6 -4 14
0 17 9 3 9 11 12 18 8 10 -6 10 -4 0 8 -10 13 -10 17 0 21 10 3 12 29 8 106
-3 55 -1 101 4 101 5 0 2 7 -5 17 -8 9 -13 18 -11 20 6 9 1 33 -8 33 -5 0 -7
-8 -4 -17 4 -10 -3 -3 -15 15 -12 18 -19 37 -16 42 3 5 1 12 -5 15 -8 5 -7 11
1 21 9 11 9 14 0 14 -9 0 -9 5 -1 20 8 14 8 20 0 20 -8 0 -8 6 0 20 8 14 8 20
0 20 -7 0 -8 6 0 19 7 14 7 22 -1 27 -9 5 -8 10 3 18 9 7 15 27 15 54 0 30 6
47 19 58 10 9 14 13 7 10 -6 -4 -14 -2 -18 4 -3 5 -2 10 4 10 5 0 8 8 7 18 -2
9 4 22 12 28 12 9 12 15 2 33 -8 15 -8 21 -1 17 16 -10 14 10 -3 26 -10 11
-11 19 -4 33 8 14 8 16 -3 9 -9 -5 -8 1 3 18 12 19 14 29 7 34 -8 4 -7 9 2 15
7 4 14 21 14 38 0 16 5 34 9 38 5 5 6 2 1 -6 -5 -9 -4 -12 3 -7 12 7 5 36 -8
36 -4 0 -6 11 -5 25 2 14 -1 25 -6 25 -6 0 -7 5 -3 12 10 16 5 90 -7 105 -7 8
-4 13 8 16 12 3 13 5 3 6 -8 0 -21 10 -28 22 -8 12 -9 18 -3 14 6 -3 11 -1 11
4 0 6 -4 11 -10 11 -5 0 -10 5 -10 11 0 5 5 7 10 4 6 -4 2 9 -9 29 -13 22 -16
38 -10 42 6 4 6 11 -2 20 -7 8 -7 14 -1 14 6 0 7 13 2 33 -4 17 -12 31 -18 30
-16 -4 -15 10 1 26 8 10 8 12 0 7 -6 -3 -17 2 -23 11 -10 16 -11 16 -5 -2 5
-16 4 -18 -7 -7 -14 14 -29 292 -15 292 4 0 3 9 -3 20 -8 14 -8 20 0 20 6 0 9
3 6 8 -2 4 -6 46 -8 94 -2 49 -7 84 -12 80 -5 -3 -7 2 -3 11 3 10 3 17 -2 17
-4 0 -8 7 -9 15 -1 8 -3 22 -4 30 -1 8 -6 15 -11 15 -5 0 -4 7 3 15 8 10 9 15
2 15 -6 0 -9 7 -6 15 5 11 2 13 -10 9 -15 -6 -20 12 -19 63 0 7 -2 12 -6 11
-19 -2 -24 4 -11 12 11 7 11 10 2 10 -7 0 -10 5 -7 10 3 6 1 10 -5 10 -8 0 -8
6 0 20 8 15 8 20 -1 20 -6 0 -9 7 -6 15 4 8 2 17 -4 20 -5 4 -7 11 -4 16 4 5
1 9 -5 9 -7 0 -10 7 -7 14 4 10 1 13 -9 9 -10 -4 -14 2 -14 21 0 14 -5 26 -11
26 -5 0 -8 4 -5 8 6 11 -4 26 -29 41 -16 10 -16 11 -2 7 15 -5 16 -3 7 15 -6
11 -15 17 -20 14 -4 -3 -6 5 -3 17 4 19 3 20 -6 8 -7 -10 -11 -11 -11 -2 0 6
-9 12 -21 12 -11 0 -18 4 -15 9 3 5 -2 15 -11 22 -14 12 -16 12 -9 -1 4 -8 -1
-5 -10 8 -9 12 -22 22 -28 22 -6 0 -4 -5 4 -10 9 -6 10 -10 3 -10 -7 0 -17 9
-23 20 -6 11 -16 20 -23 20 -7 0 -6 -4 3 -10 22 -14 6 -12 -24 3 -14 8 -22 17
-18 21 4 4 0 6 -8 4 -8 -1 -18 -7 -22 -13 -5 -6 -8 -5 -8 3 0 10 -20 13 -81
11 -45 -1 -84 2 -88 8 -3 5 -17 10 -30 10 -13 1 -28 8 -32 15 -7 10 -9 10 -9
-1 0 -9 -6 -7 -19 8 -14 16 -21 18 -24 9 -4 -10 -6 -10 -6 0 -1 9 -33 12 -126
12 -77 0 -125 4 -125 10 0 6 6 10 13 10 8 1 7 5 -4 13 -9 7 -15 19 -13 29 1
13 -4 15 -25 12 -24 -5 -25 -4 -7 9 17 12 17 14 2 20 -9 4 -16 18 -16 34 0 23
-2 25 -11 13 -9 -12 -10 -11 -6 8 3 12 1 20 -3 17 -5 -3 -14 3 -20 14 -6 12
-18 18 -29 16 -16 -3 -18 2 -15 37 2 22 7 44 10 49 3 5 -6 9 -20 9 -14 0 -29
1 -33 3 -5 1 -9 -8 -11 -21 -2 -12 -8 -20 -13 -16 -5 3 -6 10 -3 16 4 7 2 8
-5 4 -6 -4 -9 -12 -6 -17 4 -5 1 -9 -4 -9 -6 0 -11 5 -11 10 0 16 -58 11 -68
-6 -5 -9 -12 -15 -15 -15 -4 1 -8 1 -9 0 -21 -6 -37 -5 -32 2 3 5 10 6 16 3 7
-4 8 -2 4 5 -4 6 -12 9 -17 5 -6 -3 -13 3 -16 15 -3 11 -10 18 -16 14 -6 -4
-7 -1 -1 8 12 20 14 39 3 39 -6 0 -7 5 -4 10 5 8 -76 17 -108 11 -5 -1 -6 3
-2 9 3 5 2 10 -4 10 -5 0 -12 -6 -15 -12 -3 -7 -3 -2 0 11 4 16 3 21 -5 17 -6
-4 -11 -2 -11 4 0 6 -4 8 -10 5 -5 -3 -10 1 -10 9 0 10 -6 13 -15 10 -10 -4
-18 3 -24 19 -5 14 -15 28 -22 33 -8 4 -10 3 -5 -4 10 -17 -3 -15 -21 3 -8 8
-19 13 -24 10 -5 -4 -9 0 -9 8 0 8 -7 18 -16 21 -8 3 -12 2 -9 -4 3 -6 1 -10
-4 -10 -6 0 -11 5 -11 10 0 6 -9 10 -21 10 -13 0 -18 4 -13 13 6 9 5 9 -7 0
-14 -11 -42 -4 -40 11 3 18 0 20 -9 6 -6 -10 -10 -11 -10 -2 0 7 -15 12 -39
12 -21 0 -44 6 -50 14 -6 8 -24 12 -42 10 -20 -3 -28 0 -23 7 4 7 1 10 -7 7
-8 -3 -20 2 -27 11 -8 9 -11 10 -7 4 3 -7 2 -13 -3 -13 -5 0 -14 10 -21 23 -9
18 -11 18 -6 2 5 -19 4 -19 -9 -2 -7 9 -19 17 -26 17 -7 0 -11 3 -7 6 8 8 -18
34 -33 34 -7 0 -10 7 -7 14 5 12 -2 14 -30 10 -19 -2 -39 -7 -44 -10 -5 -3 -8
0 -7 7 2 7 -4 14 -12 14 -8 1 -14 6 -12 13 1 7 -6 12 -15 12 -16 0 -16 2 -3
11 12 9 11 10 -6 6 -17 -4 -20 0 -16 19 3 18 0 24 -14 24 -16 0 -17 -2 -4 -10
9 -6 10 -10 3 -10 -6 0 -15 5 -18 10 -5 8 -11 8 -20 0 -10 -8 -14 -7 -18 2 -4
10 -6 10 -6 1 -1 -17 -91 -18 -91 -2 0 6 -9 9 -20 6 -17 -4 -18 -2 -10 13 8
16 7 18 -10 15 -11 -2 -20 0 -20 6 0 5 -5 9 -11 9 -5 0 -7 -6 -3 -12 6 -10 4
-10 -8 0 -11 8 -17 9 -20 2z m-871 -355 c0 -8 -4 -12 -9 -9 -5 3 -6 10 -3 15
9 13 12 11 12 -6z m2313 -300 c14 -19 14 -19 -2 -6 -10 7 -18 18 -18 24 0 6 1
8 3 6 1 -2 9 -13 17 -24z m-3060 -779 c0 -2 -7 -7 -16 -10 -8 -3 -12 -2 -9 4
6 10 25 14 25 6z m4085 -3006 c-3 -5 -12 -10 -18 -10 -7 0 -6 4 3 10 19 12 23
12 15 0z m-3325 -1457 c0 -2 -11 4 -25 13 -14 9 -25 20 -25 25 0 5 11 -1 25
-13 14 -12 25 -23 25 -25z m2585 -53 c-3 -5 -12 -10 -18 -10 -7 0 -6 4 3 10
19 12 23 12 15 0z m-2366 -130 c11 -24 11 -24 -3 -6 -9 11 -16 24 -16 30 0 12
5 7 19 -24z"/>
<path d="M1715 1040 c-3 -5 -1 -10 4 -10 6 0 11 5 11 10 0 6 -2 10 -4 10 -3 0
-8 -4 -11 -10z"/>
<path d="M1749 1027 c6 -8 7 -18 3 -22 -4 -5 -1 -5 6 -1 10 6 10 11 1 22 -6 8
-14 14 -16 14 -3 0 0 -6 6 -13z"/>
<path d="M4805 790 c-3 -6 1 -7 9 -4 18 7 21 14 7 14 -6 0 -13 -4 -16 -10z"/>
<path d="M2170 525 c0 -5 5 -17 10 -25 5 -8 10 -10 10 -5 0 6 -5 17 -10 25 -5
8 -10 11 -10 5z"/>
</g>
</svg>
